<svg xmlns="http://www.w3.org/2000/svg" width="927" height="129.001" viewBox="0 0 927 129.001">
  <g id="Group_5455" data-name="Group 5455" transform="translate(13964 13937)">
    <g id="Rectangle_5199" data-name="Rectangle 5199" transform="translate(-13964 -13937)" fill="#231f20" stroke="#231f20" stroke-width="1">
      <path d="M6,0H921a6,6,0,0,1,6,6V129a0,0,0,0,1,0,0H0a0,0,0,0,1,0,0V6A6,6,0,0,1,6,0Z" stroke="none"/>
      <path d="M6,.5H921A5.5,5.5,0,0,1,926.5,6V128.5a0,0,0,0,1,0,0H.5a0,0,0,0,1,0,0V6A5.5,5.5,0,0,1,6,.5Z" fill="none"/>
    </g>
    <path id="Path_6180" data-name="Path 6180" d="M14.22-20.97H2.07V0H14.22V-3.42H6.27V-8.97h7.05V-12.3H6.27v-5.25h7.95ZM27.21,0h4.74L26.43-8.34l5.46-8.28h-4.5l-3.06,5.13-3.39-5.13H16.2l5.49,8.28L16.26,0h4.5l3.03-5.16ZM38.43-14.22v-2.4h-4.2V7.92h4.2V-2.37A6.785,6.785,0,0,0,43.92.27c4.26,0,7.59-3.45,7.59-8.64s-3.33-8.52-7.59-8.52A6.639,6.639,0,0,0,38.43-14.22Zm8.79,5.85c0,3.15-2.13,4.95-4.41,4.95-2.25,0-4.38-1.74-4.38-4.89s2.13-4.89,4.38-4.89C45.09-13.2,47.22-11.52,47.22-8.37Zm23.4.06a8.213,8.213,0,0,0-8.55-8.58,8.213,8.213,0,0,0-8.55,8.58A8.135,8.135,0,0,0,61.95.27,8.309,8.309,0,0,0,70.62-8.31Zm-12.84,0c0-3.33,2.01-4.92,4.23-4.92s4.29,1.59,4.29,4.92c0,3.3-2.13,4.92-4.35,4.92C59.7-3.39,57.78-5.01,57.78-8.31Zm20.13.03c0-3.21,1.5-4.17,3.99-4.17h1.11v-4.41a5.764,5.764,0,0,0-5.1,2.82v-2.58h-4.2V0h4.2Zm8.58,3.12C86.49-1.35,88.62,0,91.8,0h2.64V-3.54H92.49c-1.32,0-1.77-.48-1.77-1.59v-8.04h3.72v-3.45H90.72v-4.11H86.49v4.11H84.51v3.45h1.98ZM103.5-17.55h5.58V0h4.2V-17.55h5.58v-3.39H103.5Zm22.62,9.27c0-3.21,1.5-4.17,3.99-4.17h1.11v-4.41a5.764,5.764,0,0,0-5.1,2.82v-2.58h-4.2V0h4.2Zm6.84-.09c0,5.19,3.36,8.64,7.56,8.64a6.555,6.555,0,0,0,5.52-2.7V0h4.23V-16.62h-4.23v2.37a6.573,6.573,0,0,0-5.49-2.64C136.32-16.89,132.96-13.56,132.96-8.37Zm13.08.06c0,3.15-2.1,4.89-4.41,4.89-2.25,0-4.38-1.8-4.38-4.95s2.13-4.83,4.38-4.83C143.94-13.2,146.04-11.46,146.04-8.31ZM166.02,0h4.2V-9.75c0-4.59-2.76-7.11-6.63-7.11a6.208,6.208,0,0,0-5.01,2.31v-2.07h-4.2V0h4.2V-9.18c0-2.67,1.47-4.11,3.75-4.11,2.22,0,3.69,1.44,3.69,4.11Zm21.09-4.74c-.12-6.09-9.33-4.2-9.33-7.23,0-.96.81-1.59,2.37-1.59,1.65,0,2.67.87,2.79,2.16h4.02c-.24-3.3-2.67-5.49-6.69-5.49-4.11,0-6.57,2.22-6.57,4.98,0,6.09,9.39,4.2,9.39,7.17,0,.96-.9,1.71-2.55,1.71a2.758,2.758,0,0,1-3-2.22h-4.23c.18,3.09,3.09,5.52,7.26,5.52C184.62.27,187.11-1.89,187.11-4.74Zm2.37-3.63c0,5.19,3.36,8.64,7.56,8.64a6.555,6.555,0,0,0,5.52-2.7V0h4.23V-16.62h-4.23v2.37a6.573,6.573,0,0,0-5.49-2.64C192.84-16.89,189.48-13.56,189.48-8.37Zm13.08.06c0,3.15-2.1,4.89-4.41,4.89-2.25,0-4.38-1.8-4.38-4.95s2.13-4.83,4.38-4.83C200.46-13.2,202.56-11.46,202.56-8.31Zm7.26,0c0,5.22,3.42,8.58,8.22,8.58a7.581,7.581,0,0,0,7.83-5.88h-4.53a3.17,3.17,0,0,1-3.33,2.28c-2.34,0-3.9-1.74-3.9-4.98s1.56-5.01,3.9-5.01a3.265,3.265,0,0,1,3.33,2.31h4.53c-.9-3.72-3.69-5.88-7.83-5.88C213.24-16.89,209.82-13.53,209.82-8.31Zm19.8,3.15c0,3.81,2.13,5.16,5.31,5.16h2.64V-3.54h-1.95c-1.32,0-1.77-.48-1.77-1.59v-8.04h3.72v-3.45h-3.72v-4.11h-4.23v4.11h-1.98v3.45h1.98ZM240.6,0h4.2V-16.62h-4.2Zm2.13-18.6a2.481,2.481,0,0,0,2.58-2.46,2.481,2.481,0,0,0-2.58-2.46,2.463,2.463,0,0,0-2.58,2.46A2.463,2.463,0,0,0,242.73-18.6ZM264.99-8.31a8.213,8.213,0,0,0-8.55-8.58,8.213,8.213,0,0,0-8.55,8.58A8.135,8.135,0,0,0,256.32.27,8.309,8.309,0,0,0,264.99-8.31Zm-12.84,0c0-3.33,2.01-4.92,4.23-4.92s4.29,1.59,4.29,4.92c0,3.3-2.13,4.92-4.35,4.92C254.07-3.39,252.15-5.01,252.15-8.31ZM279.72,0h4.2V-9.75c0-4.59-2.76-7.11-6.63-7.11a6.208,6.208,0,0,0-5.01,2.31v-2.07h-4.2V0h4.2V-9.18c0-2.67,1.47-4.11,3.75-4.11,2.22,0,3.69,1.44,3.69,4.11Zm28.5,0h4.2V-20.94h-4.2v8.61h-8.97v-8.61h-4.2V0h4.2V-8.91h8.97Zm8.34,0h4.2V-16.62h-4.2Zm2.13-18.6a2.481,2.481,0,0,0,2.58-2.46,2.481,2.481,0,0,0-2.58-2.46,2.463,2.463,0,0,0-2.58,2.46A2.463,2.463,0,0,0,318.69-18.6ZM337.8-4.74c-.12-6.09-9.33-4.2-9.33-7.23,0-.96.81-1.59,2.37-1.59,1.65,0,2.67.87,2.79,2.16h4.02c-.24-3.3-2.67-5.49-6.69-5.49-4.11,0-6.57,2.22-6.57,4.98,0,6.09,9.39,4.2,9.39,7.17,0,.96-.9,1.71-2.55,1.71a2.758,2.758,0,0,1-3-2.22H324c.18,3.09,3.09,5.52,7.26,5.52C335.31.27,337.8-1.89,337.8-4.74Zm4.11-.42c0,3.81,2.13,5.16,5.31,5.16h2.64V-3.54h-1.95c-1.32,0-1.77-.48-1.77-1.59v-8.04h3.72v-3.45h-3.72v-4.11h-4.23v4.11h-1.98v3.45h1.98Zm27.03-3.15a8.213,8.213,0,0,0-8.55-8.58,8.213,8.213,0,0,0-8.55,8.58A8.135,8.135,0,0,0,360.27.27,8.309,8.309,0,0,0,368.94-8.31Zm-12.84,0c0-3.33,2.01-4.92,4.23-4.92s4.29,1.59,4.29,4.92c0,3.3-2.13,4.92-4.35,4.92C358.02-3.39,356.1-5.01,356.1-8.31Zm20.13.03c0-3.21,1.5-4.17,3.99-4.17h1.11v-4.41a5.764,5.764,0,0,0-5.1,2.82v-2.58h-4.2V0h4.2Zm15,3.27-4.29-11.61h-4.71l6.66,16.2-3.6,8.28h4.47l10.29-24.48h-4.47Z" transform="translate(-13704 -13862)" fill="#fff"/>
    <g id="LogIn-01" transform="translate(-13964 -14087.003)">
      <path id="Path_6165" data-name="Path 6165" d="M100.273,525.934h0a17.951,17.951,0,0,0,14.646-20.584h0a17.951,17.951,0,0,0-14.646,20.588" transform="translate(-63.392 -322.228)" fill="#6bc048"/>
      <path id="Path_6166" data-name="Path 6166" d="M121.648,576.045A17.969,17.969,0,0,0,100.91,561.6a17.981,17.981,0,0,0,19.548,14.726l1.2-.209a.457.457,0,0,1,0-.07" transform="translate(-63.963 -357.726)" fill="#6bc048"/>
      <path id="Path_6167" data-name="Path 6167" d="M75.154,562h-.1a17.974,17.974,0,0,0-14.748,19.772l.154.886,1.241-.212A17.978,17.978,0,0,0,75.154,562" transform="translate(-38.152 -358.136)" fill="#6bc048"/>
      <path id="Path_6168" data-name="Path 6168" d="M64.635,535.815A17.968,17.968,0,0,0,43.9,521.367a17.974,17.974,0,0,0,19.548,14.723l1.2-.205v-.07" transform="translate(-27.826 -332.225)" fill="#fff"/>
      <path id="Path_6170" data-name="Path 6170" d="M254.41,704.613h0a10.815,10.815,0,0,0,14.063,5.792h0a10.813,10.813,0,0,0-14.06-5.792" transform="translate(-161.26 -448.007)" fill="#6bc048"/>
      <path id="Path_6171" data-name="Path 6171" d="M237.163,720.339a10.819,10.819,0,0,0,5.646-14.119,10.819,10.819,0,0,0-5.972,13.467l.286.674.04-.018" transform="translate(-149.746 -449.551)" fill="#6bc048"/>
      <path id="Path_6172" data-name="Path 6172" d="M229.762,694.8a.354.354,0,0,1-.022-.055,10.816,10.816,0,0,0-13.6-5.953l-.5.209.293.7a10.82,10.82,0,0,0,13.818,5.1" transform="translate(-136.685 -438.099)" fill="#6bc048"/>
      <path id="Path_6173" data-name="Path 6173" d="M252.985,681.438a10.818,10.818,0,0,0,5.646-14.118,10.819,10.819,0,0,0-5.972,13.463l.286.674h.04" transform="translate(-159.776 -424.894)" fill="#fff"/>
      <path id="Path_6174" data-name="Path 6174" d="M215.39,592.787h0a8.535,8.535,0,0,0,10.029-6.59h0a8.531,8.531,0,0,0-10.029,6.59" transform="translate(-136.527 -373.366)" fill="#6bc048"/>
      <path id="Path_6175" data-name="Path 6175" d="M221.8,614.679a8.528,8.528,0,0,0-6.686-9.959,8.531,8.531,0,0,0,6.115,9.886l.568.117v-.033" transform="translate(-136.249 -385.214)" fill="#6bc048"/>
      <path id="Path_6176" data-name="Path 6176" d="M198.058,604.445h-.048a8.535,8.535,0,0,0-9.922,6.224l-.088.392.586.117a8.531,8.531,0,0,0,9.468-6.733" transform="translate(-119.165 -384.936)" fill="#6bc048"/>
      <path id="Path_6177" data-name="Path 6177" d="M203.5,587.075a8.531,8.531,0,0,0-6.689-9.955,8.535,8.535,0,0,0,6.115,9.886l.568.113a.107.107,0,0,1,0-.033" transform="translate(-124.644 -367.72)" fill="#fff"/>
      <path id="Path_6178" data-name="Path 6178" d="M50.161,682.062c-.509-27.095-22.47-49.2-49.6-49.063H0l.081,16.476h.1c17.458,0,31.609,14.518,31.609,32.433v.234Z" transform="translate(0 -403.139)" fill="#6bc048"/>
      <path id="ic_store_mall_directory_24px" d="M14.8,4H3.694V5.388H14.8Zm.694,6.94V9.552L14.8,6.082H3.694L3,9.552V10.94h.694V15.1h6.94V10.94H13.41V15.1H14.8V10.94ZM9.246,13.716H5.082V10.94H9.246Z" transform="translate(74 178.944)" fill="#6bc048"/>
      <path id="ic_payment_24px" d="M15.8,4H3.534A1.522,1.522,0,0,0,2.008,5.534L2,14.737a1.529,1.529,0,0,0,1.534,1.534H15.8a1.529,1.529,0,0,0,1.534-1.534v-9.2A1.529,1.529,0,0,0,15.8,4Zm0,10.737H3.534v-4.6H15.8Zm0-7.669H3.534V5.534H15.8Z" transform="translate(48 230.003)" fill="#6bc048"/>
      <path id="ic_perm_identity_24px" d="M12,5.9A2.1,2.1,0,1,1,9.9,8,2.1,2.1,0,0,1,12,5.9m0,9c2.97,0,6.1,1.46,6.1,2.1v1.1H5.9V17c0-.64,3.13-2.1,6.1-2.1M12,4a4,4,0,1,0,4,4A4,4,0,0,0,12,4Zm0,9c-2.67,0-8,1.34-8,4v3H20V17C20,14.34,14.67,13,12,13Z" transform="translate(96 214.003)" fill="#6bc048"/>
    </g>
  </g>
</svg>
