<svg xmlns="http://www.w3.org/2000/svg" width="927" height="129.001" viewBox="0 0 927 129.001">
  <g id="Group_5456" data-name="Group 5456" transform="translate(13964 13937)">
    <g id="Rectangle_5199" data-name="Rectangle 5199" transform="translate(-13964 -13937)" fill="#231f20" stroke="#231f20" stroke-width="1">
      <path d="M6,0H921a6,6,0,0,1,6,6V129a0,0,0,0,1,0,0H0a0,0,0,0,1,0,0V6A6,6,0,0,1,6,0Z" stroke="none"/>
      <path d="M6,.5H921A5.5,5.5,0,0,1,926.5,6V128.5a0,0,0,0,1,0,0H.5a0,0,0,0,1,0,0V6A5.5,5.5,0,0,1,6,.5Z" fill="none"/>
    </g>
    <g id="LogIn-01" transform="translate(-13964 -14087.003)">
      <path id="Path_6165" data-name="Path 6165" d="M100.273,525.934h0a17.951,17.951,0,0,0,14.646-20.584h0a17.951,17.951,0,0,0-14.646,20.588" transform="translate(-63.392 -322.228)" fill="#6bc048"/>
      <path id="Path_6166" data-name="Path 6166" d="M121.648,576.045A17.969,17.969,0,0,0,100.91,561.6a17.981,17.981,0,0,0,19.548,14.726l1.2-.209a.457.457,0,0,1,0-.07" transform="translate(-63.963 -357.726)" fill="#6bc048"/>
      <path id="Path_6167" data-name="Path 6167" d="M75.154,562h-.1a17.974,17.974,0,0,0-14.748,19.772l.154.886,1.241-.212A17.978,17.978,0,0,0,75.154,562" transform="translate(-38.152 -358.136)" fill="#6bc048"/>
      <path id="Path_6168" data-name="Path 6168" d="M64.635,535.815A17.968,17.968,0,0,0,43.9,521.367a17.974,17.974,0,0,0,19.548,14.723l1.2-.205v-.07" transform="translate(-27.826 -332.225)" fill="#fff"/>
      <path id="Path_6170" data-name="Path 6170" d="M254.41,704.613h0a10.815,10.815,0,0,0,14.063,5.792h0a10.813,10.813,0,0,0-14.06-5.792" transform="translate(-161.26 -448.007)" fill="#6bc048"/>
      <path id="Path_6171" data-name="Path 6171" d="M237.163,720.339a10.819,10.819,0,0,0,5.646-14.119,10.819,10.819,0,0,0-5.972,13.467l.286.674.04-.018" transform="translate(-149.746 -449.551)" fill="#6bc048"/>
      <path id="Path_6172" data-name="Path 6172" d="M229.762,694.8a.354.354,0,0,1-.022-.055,10.816,10.816,0,0,0-13.6-5.953l-.5.209.293.7a10.82,10.82,0,0,0,13.818,5.1" transform="translate(-136.685 -438.099)" fill="#6bc048"/>
      <path id="Path_6173" data-name="Path 6173" d="M252.985,681.438a10.818,10.818,0,0,0,5.646-14.118,10.819,10.819,0,0,0-5.972,13.463l.286.674h.04" transform="translate(-159.776 -424.894)" fill="#fff"/>
      <path id="Path_6174" data-name="Path 6174" d="M215.39,592.787h0a8.535,8.535,0,0,0,10.029-6.59h0a8.531,8.531,0,0,0-10.029,6.59" transform="translate(-136.527 -373.366)" fill="#6bc048"/>
      <path id="Path_6175" data-name="Path 6175" d="M221.8,614.679a8.528,8.528,0,0,0-6.686-9.959,8.531,8.531,0,0,0,6.115,9.886l.568.117v-.033" transform="translate(-136.249 -385.214)" fill="#6bc048"/>
      <path id="Path_6176" data-name="Path 6176" d="M198.058,604.445h-.048a8.535,8.535,0,0,0-9.922,6.224l-.088.392.586.117a8.531,8.531,0,0,0,9.468-6.733" transform="translate(-119.165 -384.936)" fill="#6bc048"/>
      <path id="Path_6177" data-name="Path 6177" d="M203.5,587.075a8.531,8.531,0,0,0-6.689-9.955,8.535,8.535,0,0,0,6.115,9.886l.568.113a.107.107,0,0,1,0-.033" transform="translate(-124.644 -367.72)" fill="#fff"/>
      <path id="Path_6178" data-name="Path 6178" d="M50.161,682.062c-.509-27.095-22.47-49.2-49.6-49.063H0l.081,16.476h.1c17.458,0,31.609,14.518,31.609,32.433v.234Z" transform="translate(0 -403.139)" fill="#6bc048"/>
      <path id="ic_store_mall_directory_24px" d="M14.8,4H3.694V5.388H14.8Zm.694,6.94V9.552L14.8,6.082H3.694L3,9.552V10.94h.694V15.1h6.94V10.94H13.41V15.1H14.8V10.94ZM9.246,13.716H5.082V10.94H9.246Z" transform="translate(74 178.944)" fill="#6bc048"/>
      <path id="ic_payment_24px" d="M15.8,4H3.534A1.522,1.522,0,0,0,2.008,5.534L2,14.737a1.529,1.529,0,0,0,1.534,1.534H15.8a1.529,1.529,0,0,0,1.534-1.534v-9.2A1.529,1.529,0,0,0,15.8,4Zm0,10.737H3.534v-4.6H15.8Zm0-7.669H3.534V5.534H15.8Z" transform="translate(48 230.003)" fill="#6bc048"/>
      <path id="ic_perm_identity_24px" d="M12,5.9A2.1,2.1,0,1,1,9.9,8,2.1,2.1,0,0,1,12,5.9m0,9c2.97,0,6.1,1.46,6.1,2.1v1.1H5.9V17c0-.64,3.13-2.1,6.1-2.1M12,4a4,4,0,1,0,4,4A4,4,0,0,0,12,4Zm0,9c-2.67,0-8,1.34-8,4v3H20V17C20,14.34,14.67,13,12,13Z" transform="translate(96 214.003)" fill="#6bc048"/>
    </g>
  </g>
</svg>
