<svg xmlns="http://www.w3.org/2000/svg" width="54.053" height="54.053" viewBox="0 0 54.053 54.053">
  <g id="Group_5305" data-name="Group 5305" transform="translate(0 0)">
    <path id="Path_5858" data-name="Path 5858" d="M18.825,66.986a5,5,0,1,0,5,5,5,5,0,0,0-5-5" transform="translate(8.331 -44.995)" fill="#b8b8c0"/>
    <path id="Path_5857" data-name="Path 5857" d="M28.026,62.078H15.375a6.544,6.544,0,0,0-6.537,6.537V81.266A6.545,6.545,0,0,0,15.375,87.8H28.026a6.545,6.545,0,0,0,6.538-6.538V68.615a6.545,6.545,0,0,0-6.538-6.537m-6.2,20.666a7.8,7.8,0,1,1,7.8-7.8,7.811,7.811,0,0,1-7.8,7.8M30.091,68.47a1.858,1.858,0,1,1,1.857-1.857,1.858,1.858,0,0,1-1.857,1.857" transform="translate(5.325 -47.952)" fill="#b8b8c0"/>
    <path id="Path_5859" data-name="Path 5859" d="M27.026,53.263A27.026,27.026,0,1,0,54.053,80.289,27.027,27.027,0,0,0,27.026,53.263M42.87,86.578A9.53,9.53,0,0,1,33.352,96.1H20.7a9.529,9.529,0,0,1-9.517-9.519V73.926A9.529,9.529,0,0,1,20.7,64.407H33.352a9.53,9.53,0,0,1,9.519,9.519Z" transform="translate(0 -53.263)" fill="#b8b8c0"/>
  </g>
</svg>
