<svg xmlns="http://www.w3.org/2000/svg" width="240" height="55" viewBox="0 0 240 55">
  <g id="Group_3103" data-name="Group 3103" transform="translate(-41.498 -35.7)">
    <path id="Path_2772" data-name="Path 2772" d="M79.588,63.611A6.044,6.044,0,1,1,73.511,57.6,6.044,6.044,0,0,1,79.588,63.611Z" transform="translate(-9.012 -7.705)" fill="#6abf4b"/>
    <path id="Path_2773" data-name="Path 2773" d="M104.088,63.611A6.044,6.044,0,1,1,98.011,57.6a6.044,6.044,0,0,1,6.077,6.011Z" transform="translate(-17.502 -7.705)" fill="#6abf4b"/>
    <path id="Path_2774" data-name="Path 2774" d="M90.788,41.777A6.044,6.044,0,1,1,84.777,35.7,6.044,6.044,0,0,1,90.788,41.777Z" transform="translate(-12.893 0)" fill="#6abf4b"/>
    <path id="Path_2775" data-name="Path 2775" d="M72.341,92.953A20.358,20.358,0,0,1,51.954,72.629H41.5a30.779,30.779,0,0,0,61.553.784V72.5H92.6A20.358,20.358,0,0,1,72.341,92.953Z" transform="translate(0 -13.101)" fill="#6abf4b"/>
    <path id="Path_2776" data-name="Path 2776" d="M182.754,77.52a10.479,10.479,0,0,1-.719,3.725,10.162,10.162,0,0,1-2.026,3.006A9.2,9.2,0,0,1,177,86.211a8.419,8.419,0,0,1-3.6.719,9.447,9.447,0,0,1-6.669-2.745,8.923,8.923,0,0,1-1.96-2.941A9.068,9.068,0,0,1,164,77.52V65.3h1.895v6.534h5.1v1.895h-5.1v3.79a7.3,7.3,0,0,0,.589,2.875,7.9,7.9,0,0,0,3.986,3.986,7.386,7.386,0,0,0,2.941.589,7.073,7.073,0,0,0,2.875-.589,6.628,6.628,0,0,0,2.352-1.633,8.437,8.437,0,0,0,1.633-2.352,7.383,7.383,0,0,0,.589-2.941Z" transform="translate(-41.453 -10.458)" fill="#6abf4b"/>
    <path id="Path_2777" data-name="Path 2777" d="M208.644,67.732a9.532,9.532,0,0,1,3.6.719,9.941,9.941,0,0,1,5.031,5.031,8.42,8.42,0,0,1,.719,3.6v9.336H216.1V77.141a7.3,7.3,0,0,0-.589-2.875,6.631,6.631,0,0,0-1.633-2.352,9.507,9.507,0,0,0-2.352-1.633,7.322,7.322,0,0,0-5.75,0,6.627,6.627,0,0,0-2.352,1.633,8.762,8.762,0,0,0-1.633,2.418,7.385,7.385,0,0,0-.589,2.941v9.345h-1.9V64.4h1.895v7.123a10.826,10.826,0,0,1,3.2-2.745,9.279,9.279,0,0,1,4.247-1.046Z" transform="translate(-53.398 -10.143)" fill="#6abf4b"/>
    <path id="Path_2778" data-name="Path 2778" d="M244.044,69.5a10.132,10.132,0,0,1,3.659.719,9.2,9.2,0,0,1,3.006,1.96,9.448,9.448,0,0,1,2.745,6.669v9.344h-1.895V84.464a9.539,9.539,0,0,1-3.267,2.745,8.7,8.7,0,0,1-4.248,1.046,9.183,9.183,0,0,1-8.625-5.685,8.918,8.918,0,0,1-.719-3.659,9.671,9.671,0,0,1,2.679-6.669,8.987,8.987,0,0,1,6.669-2.745Zm0,16.858a7.3,7.3,0,0,0,2.875-.589,7.9,7.9,0,0,0,3.985-3.986,7.483,7.483,0,0,0,0-5.816,7.9,7.9,0,0,0-3.985-3.986,7.323,7.323,0,0,0-5.75,0,6.628,6.628,0,0,0-2.352,1.633,8.757,8.757,0,0,0-1.633,2.418,7.483,7.483,0,0,0,0,5.816,7.9,7.9,0,0,0,3.986,3.986A8.608,8.608,0,0,0,244.044,86.358Z" transform="translate(-65.377 -11.924)" fill="#6abf4b"/>
    <path id="Path_2779" data-name="Path 2779" d="M279.309,88.154A9.261,9.261,0,0,1,269.9,78.81V69.466h1.895v9.409a7.3,7.3,0,0,0,.587,2.875,7.9,7.9,0,0,0,3.985,3.986,7.483,7.483,0,0,0,5.816,0,7.9,7.9,0,0,0,3.986-3.986,7.3,7.3,0,0,0,.589-2.875V69.4h1.895v9.409a7.3,7.3,0,0,0,.589,2.875,6.627,6.627,0,0,0,1.633,2.352,8.434,8.434,0,0,0,2.352,1.633,7.482,7.482,0,0,0,5.816,0,6.63,6.63,0,0,0,2.352-1.633,7.888,7.888,0,0,0,1.633-2.418,7.3,7.3,0,0,0,.587-2.875V69.4h1.895v9.344a10.479,10.479,0,0,1-.719,3.725,9.385,9.385,0,0,1-2.026,3.006,9.2,9.2,0,0,1-3.006,1.96,8.42,8.42,0,0,1-3.6.719,9.308,9.308,0,0,1-5.089-1.5,9.645,9.645,0,0,1-1.96-1.7,9.146,9.146,0,0,1-1.437-2.091,9.158,9.158,0,0,1-1.437,2.091,12.211,12.211,0,0,1-1.96,1.7,11.034,11.034,0,0,1-2.352,1.11,8.426,8.426,0,0,1-2.614.39Z" transform="translate(-77.132 -11.888)" fill="#231f20"/>
    <path id="Path_2780" data-name="Path 2780" d="M340.462,69.3a9.672,9.672,0,0,1,6.669,2.679,9.448,9.448,0,0,1,2.745,6.669v9.409h-1.83V84.331a9.482,9.482,0,0,1-11.174,3.07,8.927,8.927,0,0,1-2.941-1.96,9.386,9.386,0,0,1-.066-13.264,9.052,9.052,0,0,1,6.6-2.875Zm.066,16.858a7.866,7.866,0,0,0,2.941-.589,6.626,6.626,0,0,0,2.352-1.633,7.075,7.075,0,0,0,1.569-2.352,7.323,7.323,0,0,0,0-5.75,7.534,7.534,0,0,0-1.633-2.418,9.506,9.506,0,0,0-2.352-1.633,7.483,7.483,0,0,0-5.816,0A7.9,7.9,0,0,0,333.6,75.77a7.381,7.381,0,0,0-.589,2.941,7.3,7.3,0,0,0,.589,2.875,6.622,6.622,0,0,0,1.633,2.352,7.257,7.257,0,0,0,2.352,1.633,5.669,5.669,0,0,0,2.938.589Z" transform="translate(-97.647 -11.854)" fill="#231f20"/>
    <path id="Path_2781" data-name="Path 2781" d="M375.709,69.2a9.532,9.532,0,0,1,3.6.719,10.321,10.321,0,0,1,5.1,5.031,7.549,7.549,0,0,1,.719,3.6v9.345h-1.895V78.609a7.3,7.3,0,0,0-.589-2.875,7.529,7.529,0,0,0-1.633-2.418,8.758,8.758,0,0,0-2.418-1.633,7.484,7.484,0,0,0-5.816,0,6.63,6.63,0,0,0-2.352,1.633,8.758,8.758,0,0,0-1.633,2.418,7.3,7.3,0,0,0-.589,2.875v9.344h-1.9V78.609a9.534,9.534,0,0,1,.719-3.6A9.938,9.938,0,0,1,368.979,72a10.466,10.466,0,0,1,2.941-2.091,11.115,11.115,0,0,1,3.79-.713Z" transform="translate(-109.829 -11.817)" fill="#231f20"/>
    <path id="Path_2782" data-name="Path 2782" d="M401.7,65.895V64h1.895v1.895Zm0,20.257V67.4h1.895V86.152Z" transform="translate(-122.097 -10.001)" fill="#231f20"/>
  </g>
</svg>
