<svg id="Group_4570" data-name="Group 4570" xmlns="http://www.w3.org/2000/svg" width="34.152" height="36.402" viewBox="0 0 34.152 36.402">
  <path id="Path_5175" data-name="Path 5175" d="M651.282,283.2l.6-1.312c.216.015.313.161.432.271q7.913,7.294,15.831,14.584c.319.293.406.451.045.812q-8.058,8.017-16.087,16.065c-.05.049-.107.091-.174.148-.417-.327-.328-.906-.647-1.271v-.284c.233-.21.138-.488.138-.736q.008-13.629,0-27.257c0-.249.095-.527-.138-.737Z" transform="translate(-651.282 -279.655)" fill="#6bc248"/>
  <path id="Path_5176" data-name="Path 5176" d="M654.8,315.751l-1.291-.62c.177-.188.328-.358.488-.519q7.815-7.816,15.617-15.647c.518-.524.756-.457,1.239,0,1.852,1.766,3.749,3.483,5.633,5.215.172.158.366.291.612.483-3.351,1.848-6.573,3.625-9.795,5.4q-4.1,2.262-8.188,4.531a16.5,16.5,0,0,1-2.466,1.152Z" transform="translate(-651.253 -279.349)" fill="#6bc248"/>
  <path id="Path_5178" data-name="Path 5178" d="M675.723,290.015c-1.181,1.176-2.32,2.308-3.457,3.443-.6.6-1.213,1.2-1.8,1.812-.217.225-.365.285-.631.039q-8.055-7.456-16.125-14.9c-.03-.027-.035-.08-.07-.166a4.59,4.59,0,0,1,4.591.113q6.821,3.775,13.648,7.535C673.131,288.588,674.387,289.28,675.723,290.015Z" transform="translate(-651.249 -279.685)" fill="#6bc248"/>
  <path id="Path_5179" data-name="Path 5179" d="M685.069,297.6a4.247,4.247,0,0,1-2.133,3.78c-1.237.738-2.52,1.4-3.77,2.113a.476.476,0,0,1-.667-.09q-3.355-3.12-6.733-6.215c-.235-.216-.221-.33,0-.546q2.727-2.7,5.424-5.425c.244-.247.418-.2.669-.056,1.691.945,3.4,1.854,5.076,2.825A4.182,4.182,0,0,1,685.069,297.6Z" transform="translate(-650.917 -279.483)" fill="#6bc248"/>
</svg>
