<svg id="Group_5305" data-name="Group 5305" xmlns="http://www.w3.org/2000/svg" width="22.619" height="22.619" viewBox="0 0 22.619 22.619">
  <path id="Path_5858" data-name="Path 5858" d="M15.919,66.986a2.092,2.092,0,1,0,2.092,2.092,2.094,2.094,0,0,0-2.092-2.092" transform="translate(-4.555 -57.784)" fill="#6bc048"/>
  <path id="Path_5857" data-name="Path 5857" d="M16.868,62.078H11.573a2.739,2.739,0,0,0-2.735,2.735v5.294a2.739,2.739,0,0,0,2.735,2.736h5.294A2.739,2.739,0,0,0,19.6,70.108V64.813a2.739,2.739,0,0,0-2.736-2.735m-2.592,8.648a3.265,3.265,0,1,1,3.266-3.265,3.269,3.269,0,0,1-3.266,3.265m3.456-5.973a.778.778,0,1,1,.777-.777.777.777,0,0,1-.777.777" transform="translate(-2.911 -56.167)" fill="#6bc048"/>
  <path id="Path_5859" data-name="Path 5859" d="M11.309,53.263A11.309,11.309,0,1,0,22.619,64.572,11.31,11.31,0,0,0,11.309,53.263M17.939,67.2a3.988,3.988,0,0,1-3.983,3.983H8.662A3.987,3.987,0,0,1,4.679,67.2V61.909a3.987,3.987,0,0,1,3.983-3.983h5.294a3.988,3.988,0,0,1,3.983,3.983Z" transform="translate(0 -53.263)" fill="#6bc048"/>
</svg>
