<svg id="Group_5307" data-name="Group 5307" xmlns="http://www.w3.org/2000/svg" width="23.747" height="23.747" viewBox="0 0 23.747 23.747">
  <g id="Group_5308" data-name="Group 5308" transform="translate(0 0)">
    <path id="Path_5863" data-name="Path 5863" d="M11.874,0A11.874,11.874,0,1,0,23.747,11.874,11.887,11.887,0,0,0,11.874,0M8.26,17.036H6.195V9.292H8.26ZM7.227,7.744A1.032,1.032,0,1,1,8.26,6.711,1.032,1.032,0,0,1,7.227,7.744m10.841,9.292H16V13.164a1.807,1.807,0,0,0-3.614,0v3.872H10.325V9.292H12.39v.937a3.353,3.353,0,0,1,5.679,2.418Z" transform="translate(0 0)" fill="#6bc048"/>
  </g>
</svg>
