<svg id="Group_5307" data-name="Group 5307" xmlns="http://www.w3.org/2000/svg" width="56.749" height="56.749" viewBox="0 0 56.749 56.749">
  <g id="Group_5308" data-name="Group 5308" transform="translate(0 0)">
    <path id="Path_5863" data-name="Path 5863" d="M28.375,0A28.375,28.375,0,1,0,56.749,28.375,28.406,28.406,0,0,0,28.375,0M19.739,40.711H14.8V22.206h4.935ZM17.272,18.505a2.467,2.467,0,1,1,2.467-2.467,2.467,2.467,0,0,1-2.467,2.467M43.179,40.711H38.244V31.459a4.318,4.318,0,1,0-8.636,0v9.253H24.674V22.206h4.935v2.24a8.013,8.013,0,0,1,13.57,5.779Z" transform="translate(0 0)" fill="#b8b8c0"/>
  </g>
</svg>
