<svg xmlns="http://www.w3.org/2000/svg" width="54.053" height="54.051" viewBox="0 0 54.053 54.051">
  <path id="Path_5856" data-name="Path 5856" d="M71.639,53.264A27.026,27.026,0,1,0,98.666,80.29,27.026,27.026,0,0,0,71.639,53.264M86.693,71.055a.75.75,0,0,1-.155.47,11.749,11.749,0,0,1-2.357,2.45c-.133.1-.359.205-.359.4,0,4.868-1.244,9.729-4.792,13.254-4.517,4.489-11.3,5.71-17.312,4.048a16.52,16.52,0,0,1-3.349-1.34c-.354-.192-.7-.393-1.043-.619-.087-.069-.151-.133-.077-.179s.13-.04.4,0a11.836,11.836,0,0,0,5.009-.641c.875-.306,2.755-.921,3.3-1.748.013-.019.026-.019.038-.038-.22-.051-.439-.051-.657-.09a6.462,6.462,0,0,1-4.828-4.043c-.066-.162,0-.245.167-.213a6.941,6.941,0,0,0,2.3-.071,3.651,3.651,0,0,1-.779-.239,6.229,6.229,0,0,1-3.838-4.965,3.7,3.7,0,0,1-.038-.7c.013-.16.083-.212.226-.122a6.181,6.181,0,0,0,2.344.655c-.264-.205-.51-.431-.747-.655-1.787-1.692-2.479-5.134-1.051-7.277.117-.173.194-.173.335-.013,3.268,3.723,7.291,5.46,12.145,6.182.128.019.141,0,.122-.143a6.508,6.508,0,0,1,.064-2.538,6.189,6.189,0,0,1,1.2-2.4,6.436,6.436,0,0,1,2.008-1.641,6.281,6.281,0,0,1,2.492-.7,5.96,5.96,0,0,1,2.627.423,6.253,6.253,0,0,1,1.711,1.05,2.629,2.629,0,0,1,.309.316.237.237,0,0,0,.244.064,15.2,15.2,0,0,0,3.534-1.353.172.172,0,0,1,.159-.013c.051.038.034.1.008.155a5.5,5.5,0,0,1-.99,1.8c-.282.353-.987,1.22-1.466,1.3a12.193,12.193,0,0,0,2.981-.849c.12-.055.122-.079.122,0Z" transform="translate(-44.613 -53.264)" fill="#b8b8c0"/>
</svg>
