<svg id="Group_5304" data-name="Group 5304" xmlns="http://www.w3.org/2000/svg" width="53.575" height="53.577" viewBox="0 0 53.575 53.577">
  <path id="Path_5861" data-name="Path 5861" d="M16.2,14.374c-.29-.165-1.28.045-1.28.378v7.49c0,.329.984.537,1.272.381l7.376-3.649c.3-.162-.011-.591-.308-.76Z" transform="translate(8.99 8.388)" fill="#b8b8c0"/>
  <path id="Path_5862" data-name="Path 5862" d="M26.788.148A26.788,26.788,0,1,0,53.575,26.937,26.788,26.788,0,0,0,26.788.148M42.233,30.764A6.432,6.432,0,0,1,35.8,37.2H19.352a6.432,6.432,0,0,1-6.432-6.432V23.109a6.433,6.433,0,0,1,6.432-6.432H35.8a6.433,6.433,0,0,1,6.432,6.432Z" transform="translate(0 -0.148)" fill="#b8b8c0"/>
</svg>
